<svg width="46" height="45" viewBox="0 0 46 45" fill="none" xmlns="http://www.w3.org/2000/svg">
<rect width="46" height="45" fill="white"/>
<path d="M39.9434 8.64375C38.9644 7.68564 37.8021 6.92559 36.5228 6.40704C35.2435 5.88848 33.8723 5.62158 32.4875 5.62158C31.1028 5.62158 29.7316 5.88848 28.4523 6.40704C27.173 6.92559 26.0106 7.68564 25.0317 8.64375L23 10.6313L20.9684 8.64375C18.9909 6.70933 16.309 5.62258 13.5125 5.62258C10.716 5.62258 8.0341 6.70933 6.05669 8.64375C4.07928 10.5782 2.96838 13.2018 2.96838 15.9375C2.96838 18.6732 4.07928 21.2968 6.05669 23.2313L23 39.8063L39.9434 23.2313C40.9228 22.2736 41.6997 21.1365 42.2298 19.885C42.7599 18.6336 43.0327 17.2922 43.0327 15.9375C43.0327 14.5828 42.7599 13.2414 42.2298 11.99C41.6997 10.7385 40.9228 9.60142 39.9434 8.64375Z" fill="#FF0000" stroke="#CA0000" stroke-width="1.3" stroke-linecap="round" stroke-linejoin="round"/>
</svg>
