<svg width="41" height="38" viewBox="0 0 41 38" fill="none" xmlns="http://www.w3.org/2000/svg">
<path d="M35.6017 7.29913C34.7292 6.49005 33.6932 5.84823 32.5529 5.41034C31.4127 4.97245 30.1905 4.74707 28.9563 4.74707C27.722 4.74707 26.4999 4.97245 25.3596 5.41034C24.2194 5.84823 23.1834 6.49005 22.3109 7.29913L20.5 8.97746L18.6892 7.29913C16.9267 5.66562 14.5363 4.74792 12.0438 4.74792C9.55128 4.74792 7.16085 5.66562 5.39837 7.29913C3.6359 8.93264 2.64575 11.1482 2.64575 13.4583C2.64575 15.7684 3.6359 17.9839 5.39837 19.6175L20.5 33.6141L35.6017 19.6175C36.4747 18.8088 37.1671 17.8486 37.6396 16.7918C38.1121 15.735 38.3552 14.6022 38.3552 13.4583C38.3552 12.3144 38.1121 11.1816 37.6396 10.1248C37.1671 9.06801 36.4747 8.10782 35.6017 7.29913Z" fill="white" stroke="#1E1E1E" stroke-width="1.3" stroke-linecap="round" stroke-linejoin="round"/>
</svg>
