<svg width="46" height="40" viewBox="0 0 46 40" fill="none" xmlns="http://www.w3.org/2000/svg">
<path d="M41.4167 4.60406C40.3526 3.53949 39.0892 2.69499 37.6986 2.11882C36.3081 1.54265 34.8177 1.24609 33.3125 1.24609C31.8073 1.24609 30.3169 1.54265 28.9263 2.11882C27.5358 2.69499 26.2724 3.53949 25.2083 4.60406L23 6.8124L20.7917 4.60406C18.6423 2.45471 15.7271 1.24721 12.6875 1.24721C9.64784 1.24721 6.73269 2.45471 4.58333 4.60406C2.43397 6.75342 1.22647 9.66858 1.22647 12.7082C1.22647 15.7479 2.43397 18.663 4.58333 20.8124L23 39.2291L41.4167 20.8124C42.4812 19.7483 43.3257 18.4849 43.9019 17.0944C44.4781 15.7038 44.7746 14.2134 44.7746 12.7082C44.7746 11.203 44.4781 9.71261 43.9019 8.32207C43.3257 6.93153 42.4812 5.66814 41.4167 4.60406Z" fill="white" stroke="#1E1E1E" stroke-width="1.3" stroke-linecap="round" stroke-linejoin="round"/>
</svg>
